<?xml version="1.0" encoding="UTF-8" standalone="no"?>
<!-- Created with Inkscape (http://www.inkscape.org/) -->

<svg
   version="1.1"
   id="svg1260"
   xml:space="preserve"
   width="682.66669"
   height="682.66669"
   viewBox="0 0 682.66669 682.66669"
   xmlns="http://www.w3.org/2000/svg"
   xmlns:svg="http://www.w3.org/2000/svg"><defs
     id="defs1264"><clipPath
       clipPathUnits="userSpaceOnUse"
       id="clipPath1274"><path
         d="M 0,512 H 512 V 0 H 0 Z"
         id="path1272" /></clipPath></defs><g
     id="g1266"
     transform="matrix(1.3333333,0,0,-1.3333333,0,682.66667)"><g
       id="g1268"><g
         id="g1270"
         clip-path="url(#clipPath1274)"><g
           id="g1276"
           transform="translate(317,159.5)"><path
             d="m 0,0 c -58.781,0 -107.033,45.082 -112.066,102.556 l 16.349,15.001 -15,15 C -101.259,185.12 -55.287,225 0,225 62.132,225 112.5,174.632 112.5,112.5 112.5,50.368 62.132,0 0,0 M 61.147,241.236 47.208,274.889 C 45.179,280.769 39.609,285 33.039,285 c -4.143,0 -7.893,-1.679 -10.607,-4.393 -0.086,-0.086 -0.174,-0.17 -0.254,-0.262 h -44.356 c -0.08,0.092 -0.168,0.176 -0.254,0.262 -2.714,2.714 -6.464,4.393 -10.607,4.393 -6.57,0 -12.14,-4.231 -14.169,-10.111 l -13.939,-33.653 c -42.583,-20.261 -73.531,-61.02 -80.069,-109.525 l -15.844,-15.495 15,-15 C -136.308,27.79 -74.902,-30 0,-30 c 78.701,0 142.5,63.799 142.5,142.5 0,56.813 -33.253,105.85 -81.353,128.736"
             style="fill:#ffe8a3;fill-opacity:1;fill-rule:nonzero;stroke:none"
             id="path1278" /></g><g
           id="g1280"
           transform="translate(206.2842,292.0562)"><path
             d="m 0,0 c -1.171,-6.508 -1.784,-13.21 -1.784,-20.056 0,-3.352 0.163,-6.665 0.45,-9.943 57.471,-5.038 102.55,-53.279 102.55,-112.057 0,-62.132 -50.368,-112.5 -112.5,-112.5 -62.132,0 -112.5,50.368 -112.5,112.5 0,44.47 25.805,82.906 63.256,101.169 l 14.133,17.257 -15,15 c -53.977,-20.28 -92.389,-72.362 -92.389,-133.426 0,-78.701 63.8,-142.5 142.5,-142.5 78.701,0 142.5,63.799 142.5,142.5 C 131.216,-67.154 73.425,-5.752 0,0"
             style="fill:#ffd966;fill-opacity:1;fill-rule:nonzero;stroke:none"
             id="path1282" /></g><g
           id="g1284"
           transform="translate(145.7559,251.1689)"><path
             d="m 0,0 c 9.109,4.442 18.905,7.697 29.189,9.547 -0.291,3.724 -0.445,7.486 -0.445,11.284 0,6.517 0.458,12.925 1.305,19.209 C 19.318,38.595 8.969,35.952 -0.866,32.257 -1.115,28.464 -1.256,24.655 -1.256,20.831 -1.256,13.825 -0.83,6.872 0,0"
             style="fill:#ffbf61;fill-opacity:1;fill-rule:nonzero;stroke:none"
             id="path1286" /></g><g
           id="g1288"
           transform="translate(354.5,504.5)"><path
             d="M 0,0 15,-30 -52.5,-60 -30,0 Z"
             style="fill:#72dded;fill-opacity:1;fill-rule:nonzero;stroke:none"
             id="path1290" /></g><g
           id="g1292"
           transform="translate(324.5,504.5)"><path
             d="M 0,0 15,-30 -22.5,-60 -60,-30 -45,0 Z"
             style="fill:#aaeaf4;fill-opacity:1;fill-rule:nonzero;stroke:none"
             id="path1294" /></g><g
           id="g1296"
           transform="translate(369.5,474.5)"><path
             d="m 0,0 -52.5,-60 -15,30 37.5,30 z"
             style="fill:#aaeaf4;fill-opacity:1;fill-rule:nonzero;stroke:none"
             id="path1298" /></g><g
           id="g1300"
           transform="translate(339.5,474.5)"><path
             d="M 0,0 -22.5,-60 -75,0 Z"
             style="fill:#d9faff;fill-opacity:1;fill-rule:nonzero;stroke:none"
             id="path1302" /></g><g
           id="g1304"
           transform="translate(175.7891,291.2163)"><path
             d="m 0,0 c -69.615,-9.381 -123.289,-69.031 -123.289,-141.216 0,-78.701 63.8,-142.5 142.5,-142.5 78.7,0 142.5,63.799 142.5,142.5 0,74.903 -57.791,136.308 -131.217,142.059"
             style="fill:none;stroke:#000000;stroke-width:15;stroke-linecap:round;stroke-linejoin:round;stroke-miterlimit:10;stroke-dasharray:none;stroke-opacity:1"
             id="path1306" /></g><g
           id="g1308"
           transform="translate(145.3096,250.959)"><path
             d="m 0,0 c -37.211,-18.349 -62.81,-56.665 -62.81,-100.959 0,-62.132 50.369,-112.5 112.5,-112.5 62.132,0 112.5,50.368 112.5,112.5 0,58.783 -45.084,107.036 -102.56,112.067"
             style="fill:none;stroke:#000000;stroke-width:15;stroke-linecap:round;stroke-linejoin:round;stroke-miterlimit:10;stroke-dasharray:none;stroke-opacity:1"
             id="path1310" /></g><g
           id="g1312"
           transform="translate(337.0596,161.2832)"><path
             d="m 0,0 c 52.562,9.46 92.44,55.432 92.44,110.717 0,62.132 -50.368,112.5 -112.5,112.5 -62.131,0 -112.5,-50.368 -112.5,-112.5 0,-58.785 45.088,-107.04 102.568,-112.068"
             style="fill:none;stroke:#000000;stroke-width:15;stroke-linecap:round;stroke-linejoin:round;stroke-miterlimit:10;stroke-dasharray:none;stroke-opacity:1"
             id="path1314" /></g><g
           id="g1316"
           transform="translate(354.5,504.5)"><path
             d="M 0,0 H -75 L -90,-30 -37.5,-90 15,-30 Z"
             style="fill:none;stroke:#000000;stroke-width:15;stroke-linecap:round;stroke-linejoin:round;stroke-miterlimit:10;stroke-dasharray:none;stroke-opacity:1"
             id="path1318" /></g><g
           id="g1320"
           transform="translate(264.5,474.5)"><path
             d="M 0,0 H 105"
             style="fill:none;stroke:#000000;stroke-width:15;stroke-linecap:round;stroke-linejoin:round;stroke-miterlimit:10;stroke-dasharray:none;stroke-opacity:1"
             id="path1322" /></g><g
           id="g1324"
           transform="translate(336.2148,130.7847)"><path
             d="m 0,0 c 69.613,9.382 123.285,69.031 123.285,141.215 0,56.813 -33.253,105.85 -81.352,128.736 l -13.94,33.653 c -2.029,5.88 -7.598,10.111 -14.169,10.111 -4.142,0 -7.892,-1.678 -10.606,-4.393 -0.087,-0.086 -0.176,-0.17 -0.256,-0.261"
             style="fill:none;stroke:#000000;stroke-width:15;stroke-linecap:round;stroke-linejoin:round;stroke-miterlimit:10;stroke-dasharray:none;stroke-opacity:1"
             id="path1326" /></g><g
           id="g1328"
           transform="translate(294.8232,439.8452)"><path
             d="m 0,0 c -0.08,0.092 -0.169,0.175 -0.256,0.261 -2.714,2.715 -6.464,4.394 -10.606,4.394 -6.571,0 -12.14,-4.231 -14.169,-10.112 l -13.94,-33.652 c -48.099,-22.886 -81.352,-71.923 -81.352,-128.736 0,-74.903 57.79,-136.307 131.215,-142.06"
             style="fill:none;stroke:#000000;stroke-width:15;stroke-linecap:round;stroke-linejoin:round;stroke-miterlimit:10;stroke-dasharray:none;stroke-opacity:1"
             id="path1330" /></g></g></g></g></svg>
