<?xml version="1.0" encoding="UTF-8" standalone="no"?>
<!-- Created with Inkscape (http://www.inkscape.org/) -->

<svg
   version="1.1"
   id="svg1368"
   xml:space="preserve"
   width="682.66669"
   height="682.66669"
   viewBox="0 0 682.66669 682.66669"
   xmlns="http://www.w3.org/2000/svg"
   xmlns:svg="http://www.w3.org/2000/svg"><defs
     id="defs1372"><clipPath
       clipPathUnits="userSpaceOnUse"
       id="clipPath1382"><path
         d="M 0,512 H 512 V 0 H 0 Z"
         id="path1380" /></clipPath></defs><g
     id="g1374"
     transform="matrix(1.3333333,0,0,-1.3333333,0,682.66667)"><g
       id="g1376"><g
         id="g1378"
         clip-path="url(#clipPath1382)"><g
           id="g1384"
           transform="translate(256,504.5)"><path
             d="m 0,0 v -377 c 104.105,0 188.5,84.395 188.5,188.5 C 188.5,-84.394 104.105,0 0,0"
             style="fill:#ffbf61;fill-opacity:1;fill-rule:nonzero;stroke:none"
             id="path1386" /></g><g
           id="g1388"
           transform="translate(414.5,316)"><path
             d="M 0,0 C 0,104.106 -70.963,188.5 -158.5,188.5 -262.605,188.5 -347,104.106 -347,0 c 0,-104.105 84.395,-188.5 188.5,-188.5 C -70.963,-188.5 0,-104.105 0,0"
             style="fill:#ffd966;fill-opacity:1;fill-rule:nonzero;stroke:none"
             id="path1390" /></g><g
           id="g1392"
           transform="translate(384.5,52.5)"><path
             d="M 0,0 30,-45 H 60 V 0 Z"
             style="fill:#ffbf61;fill-opacity:1;fill-rule:nonzero;stroke:none"
             id="path1394" /></g><g
           id="g1396"
           transform="translate(67.5,37.5)"><path
             d="M 0,0 V -30 H 347 V 15 H 60 L 30,0 Z"
             style="fill:#ffd966;fill-opacity:1;fill-rule:nonzero;stroke:none"
             id="path1398" /></g><g
           id="g1400"
           transform="translate(444.5,67.5)"><path
             d="M 0,0 -30,-15 0,-30 H 30 V 0 Z"
             style="fill:#ffbf61;fill-opacity:1;fill-rule:nonzero;stroke:none"
             id="path1402" /></g><g
           id="g1404"
           transform="translate(97.5,82.5)"><path
             d="m 0,0 v -45 h 347 v 30 H 317 L 302,0 Z"
             style="fill:#ffe8a3;fill-opacity:1;fill-rule:nonzero;stroke:none"
             id="path1406" /></g><g
           id="g1408"
           transform="translate(354.5,112.5)"><path
             d="M 0,0 30,-45 H 60 V 0 Z"
             style="fill:#ffbf61;fill-opacity:1;fill-rule:nonzero;stroke:none"
             id="path1410" /></g><g
           id="g1412"
           transform="translate(37.5,97.5)"><path
             d="M 0,0 V -30 H 347 V 15 H 60 L 30,0 Z"
             style="fill:#ffd966;fill-opacity:1;fill-rule:nonzero;stroke:none"
             id="path1414" /></g><g
           id="g1416"
           transform="translate(414.5,127.5)"><path
             d="M 0,0 -30,-15 0,-30 H 30 V 0 Z"
             style="fill:#ffd966;fill-opacity:1;fill-rule:nonzero;stroke:none"
             id="path1418" /></g><path
           d="m 67.5,97.5 h 347 v 30 h -347 z"
           style="fill:#ffe8a3;fill-opacity:1;fill-rule:nonzero;stroke:none"
           id="path1420" /><g
           id="g1422"
           transform="translate(256,444.5)"><path
             d="m 0,0 c -70.969,0 -128.5,-57.531 -128.5,-128.5 0,-70.969 57.531,-128.5 128.5,-128.5 70.969,0 128.5,57.531 128.5,128.5 C 128.5,-57.531 70.969,0 0,0"
             style="fill:#ffe8a3;fill-opacity:1;fill-rule:nonzero;stroke:none"
             id="path1424" /></g><g
           id="g1426"
           transform="translate(354.5,316)"><path
             d="M 0,0 C 0,54.4 -44.1,98.5 -98.5,98.5 -152.9,98.5 -197,54.4 -197,0 c 0,-54.4 44.1,-98.5 98.5,-98.5 C -44.1,-98.5 0,-54.4 0,0"
             style="fill:#fff6d9;fill-opacity:1;fill-rule:nonzero;stroke:none"
             id="path1428" /></g><g
           id="g1430"
           transform="translate(284.291,367.4419)"><path
             d="m 0,0 c -2.938,0 -5.792,-0.353 -8.529,-1.008 l -19.762,-118.934 c 0,0 64.785,37.496 64.795,83.433 C 36.504,-16.349 20.16,0 0,0"
             style="fill:#ffbf61;fill-opacity:1;fill-rule:nonzero;stroke:none"
             id="path1432" /></g><g
           id="g1434"
           transform="translate(275.7617,366.4336)"><path
             d="m 0,0 c -7.893,-1.89 -14.791,-6.339 -19.762,-12.428 -6.694,8.2 -16.88,13.436 -28.291,13.436 -20.16,0 -36.504,-16.348 -36.504,-36.508 0.01,-45.938 64.795,-83.434 64.795,-83.434 0,0 34.789,37.496 34.794,83.434 C 15.032,-18.272 8.621,-3.837 0,0"
             style="fill:#ffd966;fill-opacity:1;fill-rule:nonzero;stroke:none"
             id="path1436" /></g><g
           id="g1438"
           transform="translate(97.5,37.5)"><path
             d="M 0,0 V 30"
             style="fill:none;stroke:#000000;stroke-width:15;stroke-linecap:round;stroke-linejoin:round;stroke-miterlimit:10;stroke-dasharray:none;stroke-opacity:1"
             id="path1440" /></g><g
           id="g1442"
           transform="translate(414.5,97.5)"><path
             d="M 0,0 V -30"
             style="fill:none;stroke:#000000;stroke-width:15;stroke-linecap:round;stroke-linejoin:round;stroke-miterlimit:10;stroke-dasharray:none;stroke-opacity:1"
             id="path1444" /></g><g
           id="g1446"
           transform="translate(67.5,97.5)"><path
             d="M 0,0 V 30 H 377 V 0 H -30 V -30 H 407 V -60 H 0 v -30 h 377 v 30"
             style="fill:none;stroke:#000000;stroke-width:15;stroke-linecap:round;stroke-linejoin:round;stroke-miterlimit:10;stroke-dasharray:none;stroke-opacity:1"
             id="path1448" /></g><g
           id="g1450"
           transform="translate(444.5,316)"><path
             d="m 0,0 c 0,-104.105 -84.395,-188.5 -188.5,-188.5 -104.105,0 -188.5,84.395 -188.5,188.5 0,104.105 84.395,188.5 188.5,188.5 C -84.395,188.5 0,104.105 0,0 Z"
             style="fill:none;stroke:#000000;stroke-width:15;stroke-linecap:round;stroke-linejoin:round;stroke-miterlimit:10;stroke-dasharray:none;stroke-opacity:1"
             id="path1452" /></g><g
           id="g1454"
           transform="translate(284.291,367.4414)"><path
             d="M 0,0 C -11.411,0 -21.597,-5.236 -28.291,-13.436 -34.985,-5.236 -45.171,0 -56.582,0 c -20.16,0 -36.504,-16.348 -36.504,-36.508 0.01,-45.938 64.795,-83.433 64.795,-83.433 0,0 64.785,37.495 64.795,83.433 C 36.504,-16.348 20.16,0 0,0 Z"
             style="fill:none;stroke:#000000;stroke-width:15;stroke-linecap:round;stroke-linejoin:round;stroke-miterlimit:10;stroke-dasharray:none;stroke-opacity:1"
             id="path1456" /></g><g
           id="g1458"
           transform="translate(354.5,316)"><path
             d="M 0,0 C 0,54.4 -44.1,98.5 -98.5,98.5 -152.9,98.5 -197,54.4 -197,0 c 0,-54.4 44.1,-98.5 98.5,-98.5 C -44.1,-98.5 0,-54.4 0,0 Z"
             style="fill:none;stroke:#000000;stroke-width:15;stroke-linecap:round;stroke-linejoin:round;stroke-miterlimit:10;stroke-dasharray:none;stroke-opacity:1"
             id="path1460" /></g><g
           id="g1462"
           transform="translate(155.1504,395.6367)"><path
             d="m 0,0 c -17.312,-21.895 -27.65,-49.557 -27.65,-79.637 0,-70.968 57.531,-128.5 128.5,-128.5 70.968,0 128.5,57.532 128.5,128.5 0,70.969 -57.532,128.5 -128.5,128.5 -30.079,0 -57.743,-10.338 -79.637,-27.65"
             style="fill:none;stroke:#000000;stroke-width:15;stroke-linecap:round;stroke-linejoin:round;stroke-miterlimit:10;stroke-dasharray:none;stroke-opacity:1"
             id="path1464" /></g></g></g></g></svg>
