<?xml version="1.0" encoding="iso-8859-1"?>
<!-- Generator: Adobe Illustrator 19.0.0, SVG Export Plug-In . SVG Version: 6.00 Build 0)  -->
<svg version="1.1" id="Capa_1" xmlns="http://www.w3.org/2000/svg" xmlns:xlink="http://www.w3.org/1999/xlink" x="0px" y="0px"
	 viewBox="0 0 480.007 480.007" style="enable-background:new 0 0 480.007 480.007;" xml:space="preserve">
<path style="fill:#A15D30;" d="M248.003,128.007c-39.72,0.023-75.951,22.691-93.344,58.4c16.428,14.677,17.848,39.893,3.171,56.321
	c-14.677,16.428-39.893,17.848-56.321,3.171c-2.903-2.593-5.41-5.597-7.442-8.916c-63.581,18.701-99.963,85.404-81.262,148.985
	s85.404,99.963,148.985,81.262c39.149-11.515,69.763-42.136,81.269-81.287c-18.83-11.442-24.819-35.983-13.377-54.813
	c11.442-18.83,35.983-24.819,54.813-13.377c3.398,2.065,6.467,4.625,9.108,7.598c51.588-25.174,73.001-87.401,47.827-138.989
	C324.004,150.65,287.74,128,248.003,128.007L248.003,128.007z"/>
<path style="fill:#94552C;" d="M128.003,472.007c53.187-0.02,100.015-35.048,115.056-86.064
	c-18.83-11.442-24.819-35.983-13.377-54.813c11.442-18.83,35.983-24.819,54.813-13.377c3.398,2.065,6.467,4.625,9.108,7.598
	c42.238-20.485,65.413-66.82,56.472-112.904c-96.961,82.09-215.523,134.504-341.496,150.968
	C14.459,424.977,66.161,471.99,128.003,472.007L128.003,472.007z"/>
<g>
	<path style="fill:#734222;" d="M402.345,13.658l11.314-11.314l24.749,24.749l-11.314,11.314L402.345,13.658z"/>
	<path style="fill:#734222;" d="M378.352,45.699l11.314-11.314l15.998,15.998l-11.314,11.314L378.352,45.699z"/>
	<path style="fill:#734222;" d="M417.6,76.917l11.314-11.314l24.749,24.749l-11.314,11.314L417.6,76.917z"/>
	<path style="fill:#734222;" d="M442.849,54.166l11.314-11.314l23.499,23.499l-11.314,11.314L442.849,54.166z"/>
</g>
<path style="fill:#B06B3E;" d="M104.002,335.987L192,247.989l40,40l-87.998,87.998L104.002,335.987z"/>
<g>
	<path style="fill:#824B27;" d="M450.211,8.007c-6.468,0-12.602,2.872-16.744,7.84l-33.464,40.16l-208,192l40,40l192-208
		l40.16-33.464c9.247-7.703,10.5-21.444,2.797-30.691C462.819,10.88,456.682,8.005,450.211,8.007L450.211,8.007z"/>
	<path style="fill:#824B27;" d="M184.003,376.007c-2.122,0-4.156-0.844-5.656-2.344l-72-72c-3.069-3.178-2.982-8.242,0.196-11.312
		c3.1-2.994,8.015-2.994,11.116,0l72,72c3.124,3.125,3.123,8.19-0.002,11.314C188.158,375.164,186.124,376.006,184.003,376.007
		L184.003,376.007z"/>
</g>
<g>
	<path style="fill:#FC88A1;" d="M240.003,8.807c0.446-4.396-2.757-8.32-7.152-8.766c-0.85-0.086-1.709-0.036-2.544,0.15l-72,16
		c-3.372,0.75-5.882,3.579-6.224,7.016l-5.912,59.12c-3.176-1.517-6.649-2.309-10.168-2.32
		c-13.255-0.037-24.03,10.678-24.067,23.933c-0.037,13.255,10.678,24.03,23.933,24.067c12.969,0.036,23.621-10.238,24.053-23.2h0.08
		l4.312-43.096l55.424-11.088l-1.6,15.704c-3.166-1.512-6.627-2.305-10.136-2.32c-13.255-0.037-24.03,10.678-24.067,23.933
		c-0.037,13.255,10.678,24.03,23.933,24.067c12.969,0.036,23.621-10.238,24.053-23.2h0.08L240.003,8.807z M165.939,45.063
		l1.448-14.504l55.552-12.344l-1.6,15.76L165.939,45.063z"/>
	<path style="fill:#FC88A1;" d="M446.403,320.007c-6.338,0.005-12.257-3.163-15.768-8.44c-6.467-9.715-17.362-15.554-29.032-15.56
		h-1.6c-4.078,0-7.503,3.067-7.952,7.12l-5.704,51.32c-3.218-1.587-6.756-2.422-10.344-2.44
		c-13.255-0.04-24.032,10.673-24.072,23.928c-0.04,13.255,10.673,24.032,23.928,24.072c12.94,0.039,23.581-10.188,24.056-23.12h0.04
		l7.12-64.064c4.207,1.269,7.839,3.965,10.272,7.624c6.471,9.722,17.377,15.562,29.056,15.56h1.6v-16H446.403z"/>
</g>
<path style="fill:#824B27;" d="M144.003,376.007l-40-40l-32,48l-39.904,39.904c6.828,9.092,14.908,17.172,24,24l39.904-39.904
	L144.003,376.007z"/>
<path d="M480.003,29.799c0.001-16.454-13.337-29.792-29.791-29.793c-8.843,0-17.228,3.928-22.889,10.721l-2.4,2.88L413.659,2.351
	l-11.312,11.312l12.288,12.288l-15.2,18.2l-9.776-9.8l-11.312,11.312l10.112,10.112l-85.384,78.816
	c-53.611-30.473-121.774-11.716-152.246,41.895c-1.186,2.087-2.304,4.211-3.354,6.369c-1.572,3.21-0.824,7.073,1.832,9.464
	c6.8,5.995,10.695,14.623,10.696,23.688c0.052,17.624-14.193,31.954-31.818,32.006c-11.147,0.033-21.502-5.753-27.318-15.262
	c-1.893-3.064-5.6-4.485-9.056-3.472c-54.29,16.228-91.571,66.065-91.808,122.728c0.013,27.551,8.972,54.354,25.528,76.376
	c0.072,0.112,0.088,0.232,0.168,0.336c0.36,0.472,0.8,0.92,1.12,1.392c1.368,1.76,2.744,3.504,4.2,5.192
	c0.8,0.896,1.6,1.744,2.4,2.608c2.768,3.051,5.672,5.955,8.712,8.712c0.864,0.8,1.712,1.6,2.608,2.4
	c1.688,1.456,3.432,2.832,5.192,4.2c0.472,0.36,0.92,0.76,1.392,1.12c0.112,0.088,0.248,0.112,0.368,0.192
	c22.009,16.528,48.788,25.467,76.312,25.472c56.663-0.237,106.5-37.518,122.728-91.808c1.013-3.456-0.408-7.163-3.472-9.056
	c-15.039-9.174-19.793-28.801-10.619-43.84c9.174-15.039,28.801-19.793,43.84-10.619c2.688,1.64,5.118,3.668,7.212,6.019
	c2.391,2.656,6.254,3.404,9.464,1.832c55.463-26.955,78.573-93.768,51.618-149.231c-1.049-2.159-2.168-4.283-3.354-6.369
	l82.656-89.544l14.272,14.272l11.312-11.312l-13.44-13.44l13.84-11.536l12.288,12.288l11.312-11.312l-11.256-11.264l2.88-2.4
	C476.085,47.033,480.015,38.643,480.003,29.799L480.003,29.799z M439.619,20.999c4.882-5.841,13.575-6.619,19.416-1.737
	s6.619,13.575,1.737,19.416c-0.526,0.629-1.107,1.211-1.737,1.737l-34.536,28.8l-13.672-13.704L439.619,20.999z M90.955,246.359
	c9.043,11.186,22.664,17.674,37.048,17.648c26.426,0.086,47.917-21.267,48.003-47.692c0.037-11.503-4.071-22.635-11.571-31.356
	c24.91-44.592,80.487-61.708,126.168-38.856l-104,96c-0.04,0-0.056,0.088-0.088,0.128s-0.096,0.048-0.136,0.088l-58.376,58.376
	l-10.344-10.344c-3.178-3.069-8.243-2.982-11.312,0.196c-2.994,3.1-2.994,8.015,0,11.116l10.344,10.344l-18.344,18.344
	c-0.173,0.231-0.333,0.472-0.48,0.72c-0.152,0.192-0.384,0.296-0.52,0.496l-31.56,47.344l-32.536,32.536
	c-11.258-17.782-17.239-38.394-17.248-59.44C16.207,304.508,46.191,262.244,90.955,246.359L90.955,246.359z M325.227,175.207
	l-93.456,101.256l-28.224-28.224l101.256-93.456C312.596,160.529,319.481,167.414,325.227,175.207L325.227,175.207z
	 M144.003,364.695l-28.688-28.688l12.688-12.688l28.688,28.688L144.003,364.695z M42.819,424.503l34.84-34.84
	c0.373-0.371,0.707-0.779,1-1.216l26.584-39.888l26.208,26.208l-39.888,26.584c-0.437,0.293-0.845,0.628-1.216,1l-34.848,34.84
	C50.938,433.31,46.697,429.067,42.819,424.503L42.819,424.503z M139.315,312.007l52.688-52.688l28.688,28.688l-52.688,52.688
	L139.315,312.007z M344.003,232.007c0.113,34.69-18.638,66.701-48.952,83.568c-20.142-17.133-50.36-14.694-67.493,5.448
	s-14.694,50.36,5.448,67.493c0.213,0.182,0.428,0.361,0.645,0.539c-15.885,44.764-58.149,74.748-105.648,74.952
	c-21.046-0.009-41.658-5.99-59.44-17.248l32.536-32.536l47.344-31.56c0.2-0.136,0.304-0.368,0.496-0.52
	c0.248-0.147,0.489-0.307,0.72-0.48l18.344-18.344l10.344,10.344c3.178,3.069,8.243,2.982,11.312-0.196
	c2.994-3.1,2.994-8.015,0-11.116l-10.344-10.344l58.344-58.344c0-0.04,0.048-0.096,0.088-0.136s0.096-0.048,0.128-0.088l96-104
	C340.508,202.65,343.975,217.224,344.003,232.007z M336.243,163.279c-5.679-7.279-12.233-13.833-19.512-19.512l83.056-76.664
	l13.12,13.12L336.243,163.279z"/>
<path d="M208.003,64.007c-13.255-0.037-24.03,10.678-24.067,23.933c-0.037,13.255,10.678,24.03,23.933,24.067
	c12.969,0.036,23.621-10.238,24.053-23.2h0.08l8-80c0.446-4.396-2.757-8.32-7.152-8.766c-0.85-0.086-1.709-0.036-2.544,0.15l-72,16
	c-3.372,0.75-5.882,3.579-6.224,7.016l-5.912,59.12c-3.176-1.517-6.649-2.309-10.168-2.32c-13.255-0.037-24.03,10.678-24.067,23.933
	c-0.037,13.255,10.678,24.03,23.933,24.067c12.969,0.036,23.621-10.238,24.053-23.2h0.08l4.312-43.096l55.424-11.088l-1.6,15.704
	C214.973,64.815,211.512,64.022,208.003,64.007L208.003,64.007z M208.003,96.007c-4.418,0-8-3.582-8-8s3.582-8,8-8s8,3.582,8,8
	S212.422,96.007,208.003,96.007z M136.003,112.007c-4.418,0-8-3.582-8-8s3.582-8,8-8s8,3.582,8,8S140.422,112.007,136.003,112.007z
	 M165.939,45.063l1.448-14.504l55.552-12.344l-1.6,15.76L165.939,45.063z"/>
<path d="M430.659,311.567c-6.471-9.722-17.377-15.562-29.056-15.56h-1.6c-4.078,0-7.503,3.067-7.952,7.12l-5.704,51.32
	c-3.218-1.587-6.756-2.422-10.344-2.44c-13.255-0.04-24.032,10.673-24.072,23.928c-0.04,13.255,10.673,24.032,23.928,24.072
	c12.94,0.039,23.581-10.188,24.056-23.12h0.04l7.12-64.064c4.207,1.269,7.839,3.965,10.272,7.624
	c6.471,9.722,17.377,15.562,29.056,15.56h1.6v-16h-1.6C440.074,320.004,434.165,316.836,430.659,311.567z M376.003,384.007
	c-4.418,0-8-3.582-8-8s3.582-8,8-8s8,3.582,8,8S380.422,384.007,376.003,384.007z"/>
<g>
</g>
<g>
</g>
<g>
</g>
<g>
</g>
<g>
</g>
<g>
</g>
<g>
</g>
<g>
</g>
<g>
</g>
<g>
</g>
<g>
</g>
<g>
</g>
<g>
</g>
<g>
</g>
<g>
</g>
</svg>
