<?xml version="1.0" encoding="iso-8859-1"?>
<!-- Generator: Adobe Illustrator 19.0.0, SVG Export Plug-In . SVG Version: 6.00 Build 0)  -->
<svg version="1.1" id="Capa_1" xmlns="http://www.w3.org/2000/svg" xmlns:xlink="http://www.w3.org/1999/xlink" x="0px" y="0px"
	 viewBox="0 0 480.38 480.38" style="enable-background:new 0 0 480.38 480.38;" xml:space="preserve">
<path style="fill:#A2A9B0;" d="M128.714,40v78.008c-0.002,17.093,3.977,33.952,11.624,49.24
	c8.124,16.249,12.101,34.257,11.576,52.416L145.514,440c-0.442,17.226,13.164,31.548,30.39,31.99c0.27,0.007,0.54,0.01,0.81,0.01
	c17.231,0.006,31.205-13.958,31.21-31.19c0-0.27-0.003-0.54-0.01-0.81l-6.4-220.352c-0.525-18.157,3.452-36.161,11.576-52.408
	c7.644-15.283,11.624-32.136,11.624-49.224V40c0-17.673-14.327-32-32-32h-32C143.041,8,128.714,22.327,128.714,40z"/>
<g>
	<path style="fill:#65686B;" d="M152.714,8h16v104h-16V8z"/>
	<path style="fill:#65686B;" d="M184.714,8h16v104h-16V8z"/>
</g>
<path style="fill:#A2A9B0;" d="M344.714,240V8c-24.157,0.001-45.881,14.708-54.856,37.136
	c-21.36,53.395-22.472,112.754-3.128,166.912L296.714,240l-6.896,200c-0.549,17.063,12.838,31.341,29.901,31.891
	s31.341-12.838,31.891-29.901c0.021-0.663,0.021-1.326,0-1.989L344.714,240z"/>
<path d="M232.714,118.016V40c-0.026-22.08-17.92-39.974-40-40h-32c-22.08,0.026-39.974,17.92-40,40v78.008
	c0.026,18.326,4.292,36.397,12.464,52.8c7.525,15.078,11.213,31.78,10.736,48.624l-6.4,220.376
	c-0.758,21.636,16.168,39.79,37.804,40.548c21.636,0.758,39.79-16.168,40.548-37.804c0.032-0.914,0.032-1.829,0-2.743l-6.4-220.352
	c-0.475-16.837,3.213-33.53,10.736-48.6C228.397,154.446,232.68,136.36,232.714,118.016L232.714,118.016z M216.714,118.016
	c-0.02,15.844-3.708,31.468-10.776,45.648c-8.705,17.433-12.972,36.746-12.424,56.224l6.4,220.32
	c0.184,6.261-2.191,12.327-6.576,16.8c-9.23,9.033-23.986,9.033-33.216,0c-4.391-4.458-6.777-10.513-6.608-16.768l6.4-220.344
	c0.552-19.48-3.713-38.795-12.416-56.232c-7.071-14.182-10.762-29.809-10.784-45.656V40c0.042-10.134,6.445-19.15,16-22.528V112h16
	V16h16v96h16V17.472c9.555,3.378,15.958,12.394,16,22.528L216.714,118.016z"/>
<path d="M344.714,0c-27.458-0.087-52.17,16.643-62.288,42.168c-22.079,55.207-23.217,116.58-3.2,172.568l9.472,26.512
	l-6.848,198.496c-0.755,21.482,16.048,39.508,37.529,40.263c21.482,0.755,39.508-16.048,40.263-37.529
	c0.032-0.911,0.032-1.822,0-2.733l-6.928-199.904V8C352.714,3.582,349.133,0,344.714,0L344.714,0z M297.282,48.112
	c6.636-16.743,21.637-28.724,39.432-31.496V232h-34.4l-8.088-22.64C275.539,157.038,276.626,99.689,297.282,48.112z
	 M337.194,457.008c-9.137,9.016-23.823,9.016-32.96,0c-4.328-4.465-6.64-10.506-6.4-16.72L304.442,248h32.544l6.632,192.288
	C343.852,446.505,341.531,452.547,337.194,457.008z"/>
<g>
</g>
<g>
</g>
<g>
</g>
<g>
</g>
<g>
</g>
<g>
</g>
<g>
</g>
<g>
</g>
<g>
</g>
<g>
</g>
<g>
</g>
<g>
</g>
<g>
</g>
<g>
</g>
<g>
</g>
</svg>
