<?xml version="1.0" encoding="iso-8859-1"?>
<!-- Generator: Adobe Illustrator 19.0.0, SVG Export Plug-In . SVG Version: 6.00 Build 0)  -->
<svg version="1.1" id="Capa_1" xmlns="http://www.w3.org/2000/svg" xmlns:xlink="http://www.w3.org/1999/xlink" x="0px" y="0px"
	 viewBox="0 0 480 480" style="enable-background:new 0 0 480 480;" xml:space="preserve">
<g>
	<path style="fill:#FFEAB8;" d="M432,392v-16h-24v-40l-112-48v176v8v8h136v-16h-24v-40h24v-16h-24v-16H432z"/>
	<path style="fill:#FFEAB8;" d="M48,464h136v16H48V464z"/>
</g>
<path style="fill:#FFE1B0;" d="M312,294.856L296,288v192h16V294.856z"/>
<g>
	<path style="fill:#FFEAB8;" d="M184,472H72V336l112-48V472z"/>
	<path style="fill:#FFEAB8;" d="M48,376h24v16H48V376z"/>
	<path style="fill:#FFEAB8;" d="M48,408h24v16H48V408z"/>
</g>
<g>
	<path style="fill:#7FC0E6;" d="M184,136h112v72H184V136z"/>
	<path style="fill:#7FC0E6;" d="M240,56l-32,80h64L240,56z"/>
	<path style="fill:#7FC0E6;" d="M232,0h16v80h-16V0z"/>
	<path style="fill:#7FC0E6;" d="M216,16h48v16h-48V16z"/>
</g>
<path style="fill:#FFF3C9;" d="M296,480H184V208l56-64l56,64V480z"/>
<circle style="fill:#7FC0E6;" cx="240" cy="208" r="16"/>
<path style="fill:#FFF3C9;" d="M160,248h160v16H160V248z"/>
<g>
	<path style="fill:#7FC0E6;" d="M112,408h32v32h-32V408z"/>
	<path style="fill:#7FC0E6;" d="M143.864,392c-0.643-10.252-6.684-19.391-15.864-24c-9.18,4.609-15.221,13.748-15.864,24H143.864z"
		/>
	<path style="fill:#7FC0E6;" d="M255.864,312c-0.643-10.252-6.684-19.391-15.864-24c-9.18,4.609-15.221,13.748-15.864,24H255.864z"
		/>
	<path style="fill:#7FC0E6;" d="M224,328h32v32h-32V328z"/>
	<path style="fill:#7FC0E6;" d="M367.864,392c-0.643-10.252-6.684-19.391-15.864-24c-9.18,4.609-15.221,13.748-15.864,24H367.864z"
		/>
	<path style="fill:#7FC0E6;" d="M336,408h32v32h-32V408z"/>
	<path style="fill:#7FC0E6;" d="M256,472h-32v-54.112c0-10.963,6.194-20.985,16-25.888c9.806,4.903,16,14.925,16,25.888V472z"/>
	<path style="fill:#7FC0E6;" d="M224,432h32v40h-32V432z"/>
	<path style="fill:#7FC0E6;" d="M184,279.744L44.952,336.6l6.096,14.8L184,297.032V279.744z"/>
	<path style="fill:#7FC0E6;" d="M296,279.744v17.288L428.952,351.4l6.096-14.8L296,279.744z"/>
</g>
<path style="fill:#FFEAB8;" d="M184,264h112v16H184V264z"/>
<path d="M131.576,360.84c-2.251-1.125-4.901-1.125-7.152,0c-11.92,5.932-19.689,17.859-20.296,31.16H104v48c0,4.418,3.582,8,8,8h32
	c4.418,0,8-3.582,8-8v-48h-0.128C151.265,378.699,143.496,366.772,131.576,360.84z M128,377.416
	c4.509,3.568,7.329,8.852,7.784,14.584h-15.568C120.671,386.268,123.491,380.984,128,377.416L128,377.416z M136,432h-16v-24h16V432z
	"/>
<path d="M44.952,336.6l6.096,14.8L64,346.064V376H48v16h16v16H48v16h16v40H48v16h384v-16h-16v-40h16v-16h-16v-16h16v-16h-16v-29.936
	l12.952,5.336l6.096-14.8L304,282.64V264h16v-16h-16V136c0-4.418-3.582-8-8-8h-18.584L248,54.456V32h16V16h-16V0h-16v16h-16v16h16
	v22.456L202.584,128H184c-4.418,0-8,3.582-8,8v112h-16v16h16v18.64L44.952,336.6z M80,341.272l96-41.136V464H80V341.272z M248,424
	h-16v-6.112c-0.024-6.432,2.93-12.514,8-16.472c5.07,3.958,8.024,10.04,8,16.472V424z M232,464v-24h16v24H232z M304,464V300.136
	l96,41.136V464L304,464z M288,186.704L273.048,169.6l-22.4-25.6H288V186.704z M240,77.536L260.184,128h-40.368L240,77.536z M192,144
	h37.368l-22.4,25.6L192,186.704V144z M192,211.008l48-54.856l48,54.856V248h-96V211.008z M288,264v200h-24v-46.112
	c0.047-14.008-7.874-26.825-20.424-33.048c-2.251-1.125-4.901-1.125-7.152,0c-12.55,6.223-20.471,19.04-20.424,33.048V464h-24V264
	H288z"/>
<path d="M224,368h32c4.418,0,8-3.582,8-8v-46.112c0.062-14.023-7.861-26.858-20.424-33.088c-2.251-1.125-4.901-1.125-7.152,0
	c-12.563,6.23-20.486,19.065-20.424,33.088V360C216,364.418,219.582,368,224,368z M232,352v-24h16v24H232z M240,297.416
	c4.509,3.568,7.329,8.852,7.784,14.584h-15.568C232.671,306.268,235.491,300.984,240,297.416z"/>
<path d="M240,184c-13.255,0-24,10.745-24,24s10.745,24,24,24c13.255,0,24-10.745,24-24S253.255,184,240,184z M240,216
	c-4.418,0-8-3.582-8-8s3.582-8,8-8s8,3.582,8,8S244.418,216,240,216z"/>
<path d="M355.576,360.84c-2.251-1.125-4.901-1.125-7.152,0c-12.55,6.223-20.471,19.04-20.424,33.048V440c0,4.418,3.582,8,8,8h32
	c4.418,0,8-3.582,8-8v-46.112C376.047,379.88,368.126,367.063,355.576,360.84L355.576,360.84z M352,377.416
	c4.509,3.568,7.329,8.852,7.784,14.584h-15.568C344.671,386.268,347.491,380.984,352,377.416L352,377.416z M344,432v-24h16v24H344z"
	/>
<g>
</g>
<g>
</g>
<g>
</g>
<g>
</g>
<g>
</g>
<g>
</g>
<g>
</g>
<g>
</g>
<g>
</g>
<g>
</g>
<g>
</g>
<g>
</g>
<g>
</g>
<g>
</g>
<g>
</g>
</svg>
