<?xml version="1.0" encoding="UTF-8" standalone="no"?>
<!-- Created with Inkscape (http://www.inkscape.org/) -->

<svg
   version="1.1"
   id="svg8700"
   xml:space="preserve"
   width="682.66669"
   height="682.66669"
   viewBox="0 0 682.66669 682.66669"
   xmlns="http://www.w3.org/2000/svg"
   xmlns:svg="http://www.w3.org/2000/svg"><defs
     id="defs8704"><clipPath
       clipPathUnits="userSpaceOnUse"
       id="clipPath8714"><path
         d="M 0,512 H 512 V 0 H 0 Z"
         id="path8712" /></clipPath></defs><g
     id="g8706"
     transform="matrix(1.3333333,0,0,-1.3333333,0,682.66667)"><g
       id="g8708"><g
         id="g8710"
         clip-path="url(#clipPath8714)"><g
           id="g8716"
           transform="translate(396.4629,192.9629)"><path
             d="m 0,0 c -12.677,0 -24.897,3.748 -35.346,10.839 -0.608,0.407 -37.036,24.747 -78.117,52.197 l 77.866,52.029 0.251,0.169 c 10.448,7.092 22.668,10.84 35.346,10.84 34.759,0 63.037,-28.278 63.037,-63.037 C 63.037,28.278 34.759,0 0,0 m -253.963,23.277 c -7.96,-5.41 -17.29,-8.28 -26.96,-8.28 -26.49,0 -48.04,21.55 -48.04,48.04 0,26.49 21.55,48.04 48.04,48.04 9.67,0 19,-2.87 26.96,-8.28 l 32.502,-21.719 54,10e-4 z m 253.96,147.8 c -21.71,0 -42.67,-6.431 -60.59,-18.6 l -79.87,-53.359 -27.001,18.038 -61.363,22.965 c -15.416,10.438 -33.427,15.953 -52.099,15.953 -51.301,0 -93.037,-41.736 -93.037,-93.037 0,-51.301 41.736,-93.037 93.037,-93.037 18.669,0 36.68,5.516 52.098,15.951 l 74.867,50.026 93.357,-62.379 c 17.931,-12.17 38.881,-18.601 60.601,-18.601 59.58,0 108.04,48.47 108.04,108.04 0,59.57 -48.46,108.04 -108.04,108.04"
             style="fill:#aaeaf4;fill-opacity:1;fill-rule:nonzero;stroke:none"
             id="path8718" /></g><g
           id="g8720"
           transform="translate(396.46,207.96)"><path
             d="m 0,0 c -9.67,0 -19,2.87 -26.96,8.28 -0.07,0.05 -59.5,39.76 -59.5,39.76 l 59.5,39.76 C -19,93.21 -9.67,96.08 0,96.08 26.49,96.08 48.04,74.53 48.04,48.04 48.04,21.55 26.49,0 0,0 m 0,126.08 c -15.67,0 -30.79,-4.64 -43.72,-13.399 l -96.556,-64.522 v -0.118 h -0.177 L -237.19,-16.601 C -250.13,-25.36 -265.25,-30 -280.92,-30 c -43.03,0 -78.04,35.01 -78.04,78.04 0,43.03 35.01,78.04 78.04,78.04 15.67,0 30.79,-4.64 43.72,-13.399 l 42.743,-28.559 26.996,18.037 -52.869,35.32 c -17.92,12.17 -38.88,18.601 -60.59,18.601 -59.58,0 -108.04,-48.47 -108.04,-108.04 0,-59.57 48.46,-108.04 108.04,-108.04 21.72,0 42.67,6.431 60.601,18.601 l 79.859,53.359 27,18.04 C -82.19,9.11 -45.771,-15.229 -43.729,-16.601 -30.79,-25.36 -15.67,-30 0,-30 43.03,-30 78.04,5.01 78.04,48.04 78.04,91.07 43.03,126.08 0,126.08"
             style="fill:#d9faff;fill-opacity:1;fill-rule:nonzero;stroke:none"
             id="path8722" /></g><g
           id="g8724"
           transform="translate(202.001,256.001)"><path
             d="m 0,0 27.001,18.041 -26.999,18.04 -27,-18.04 z"
             style="fill:#72dded;fill-opacity:1;fill-rule:nonzero;stroke:none"
             id="path8726" /></g><g
           id="g8728"
           transform="translate(284.291,448.1035)"><path
             d="m 0,0 c -2.938,0 -5.792,-0.353 -8.529,-1.008 l -19.762,-118.933 c 0,0 64.785,37.495 64.795,83.432 C 36.504,-16.348 20.16,0 0,0"
             style="fill:#ff5474;fill-opacity:1;fill-rule:nonzero;stroke:none"
             id="path8730" /></g><g
           id="g8732"
           transform="translate(275.7617,447.0957)"><path
             d="m 0,0 c -7.893,-1.891 -14.791,-6.339 -19.762,-12.428 -6.694,8.199 -16.88,13.436 -28.291,13.436 -20.16,0 -36.504,-16.348 -36.504,-36.509 0.01,-45.937 64.795,-83.433 64.795,-83.433 0,0 34.789,37.496 34.794,83.433 C 15.032,-18.271 8.621,-3.837 0,0"
             style="fill:#ff7a94;fill-opacity:1;fill-rule:nonzero;stroke:none"
             id="path8734" /></g><g
           id="g8736"
           transform="translate(284.291,63.8965)"><path
             d="m 0,0 c -2.938,0 -5.792,0.353 -8.529,1.008 l -19.762,118.933 c 0,0 64.785,-37.495 64.795,-83.432 C 36.504,16.348 20.16,0 0,0"
             style="fill:#ff5474;fill-opacity:1;fill-rule:nonzero;stroke:none"
             id="path8738" /></g><g
           id="g8740"
           transform="translate(275.7617,64.9043)"><path
             d="m 0,0 c -7.893,1.891 -14.791,6.339 -19.762,12.428 -6.694,-8.199 -16.88,-13.436 -28.291,-13.436 -20.16,0 -36.504,16.348 -36.504,36.509 0.01,45.937 64.795,83.433 64.795,83.433 0,0 34.789,-37.496 34.794,-83.433 C 15.032,18.271 8.621,3.837 0,0"
             style="fill:#ff7a94;fill-opacity:1;fill-rule:nonzero;stroke:none"
             id="path8742" /></g><g
           id="g8744"
           transform="translate(284.291,448.1035)"><path
             d="M 0,0 C -11.411,0 -21.597,-5.236 -28.291,-13.436 -34.985,-5.236 -45.171,0 -56.582,0 c -20.16,0 -36.504,-16.348 -36.504,-36.509 0.01,-45.937 64.795,-83.432 64.795,-83.432 0,0 64.785,37.495 64.795,83.432 C 36.504,-16.348 20.16,0 0,0 Z"
             style="fill:none;stroke:#000000;stroke-width:15;stroke-linecap:round;stroke-linejoin:round;stroke-miterlimit:10;stroke-dasharray:none;stroke-opacity:1"
             id="path8746" /></g><g
           id="g8748"
           transform="translate(284.291,63.8965)"><path
             d="M 0,0 C -11.411,0 -21.597,5.236 -28.291,13.436 -34.985,5.236 -45.171,0 -56.582,0 c -20.16,0 -36.504,16.348 -36.504,36.509 0.01,45.937 64.795,83.432 64.795,83.432 0,0 64.785,-37.495 64.795,-83.432 C 36.504,16.348 20.16,0 0,0 Z"
             style="fill:none;stroke:#000000;stroke-width:15;stroke-linecap:round;stroke-linejoin:round;stroke-miterlimit:10;stroke-dasharray:none;stroke-opacity:1"
             id="path8750" /></g><g
           id="g8752"
           transform="translate(256,292.0811)"><path
             d="m 0,0 -79.865,53.363 c -17.929,12.164 -38.88,18.593 -60.598,18.593 -59.572,0 -108.037,-48.465 -108.037,-108.037 0,-59.572 48.465,-108.037 108.037,-108.037 21.719,0 42.673,6.431 60.603,18.596 l 193.361,129.2 c 7.961,5.416 17.284,8.278 26.962,8.278 26.487,0 48.037,-21.549 48.037,-48.037 0,-26.488 -21.55,-48.037 -48.037,-48.037 -9.677,0 -19,2.862 -26.962,8.277 -0.068,0.046 -59.502,39.76 -59.502,39.76 M 0,-72.162 l 79.86,-53.36 c 17.93,-12.165 38.884,-18.596 60.603,-18.596 59.572,0 108.037,48.465 108.037,108.037 0,59.572 -48.465,108.037 -108.037,108.037 -21.718,0 -42.669,-6.429 -60.598,-18.593 L -113.501,-75.841 c -7.962,-5.415 -17.285,-8.277 -26.962,-8.277 -26.487,0 -48.037,21.549 -48.037,48.037 0,26.488 21.55,48.037 48.037,48.037 9.678,0 19.001,-2.862 26.962,-8.278 l 59.504,-39.759"
             style="fill:none;stroke:#000000;stroke-width:15;stroke-linecap:round;stroke-linejoin:round;stroke-miterlimit:10;stroke-dasharray:none;stroke-opacity:1"
             id="path8754" /></g><g
           id="g8756"
           transform="translate(229.0029,274.04)"><path
             d="m 0,0 -69.742,46.6 c -12.932,8.764 -28.049,13.397 -43.724,13.397 -16.104,0 -31.085,-4.903 -43.527,-13.296 m -21.214,-21.213 c -8.393,-12.442 -13.296,-27.424 -13.296,-43.528 0,-43.03 35.007,-78.037 78.037,-78.037 15.676,0 30.794,4.633 43.729,13.399 L 123.736,46.6 c 12.932,8.764 28.049,13.397 43.724,13.397 43.03,0 78.037,-35.007 78.037,-78.037 0,-43.03 -35.007,-78.037 -78.037,-78.037 -15.676,0 -30.794,4.633 -43.729,13.399 -2.043,1.365 -38.466,25.705 -69.734,46.599"
             style="fill:none;stroke:#000000;stroke-width:15;stroke-linecap:round;stroke-linejoin:round;stroke-miterlimit:10;stroke-dasharray:none;stroke-opacity:1"
             id="path8758" /></g></g></g></g></svg>
