<svg viewBox="0 0 48 48" xmlns="http://www.w3.org/2000/svg"><g id="Aphrodite"><path d="m32 42a5.41 5.41 0 0 0 0-6h-4.46a12.29 12.29 0 0 1 -10.54-5.94 13 13 0 0 1 4-1.7v-3.94a8.08 8.08 0 0 0 6 0v3.94a12.9 12.9 0 0 1 9 7.86c.68 1.74.67 2.31 2 10.78h-6z" fill="#f6ccaf"/><path d="m32 13c0 3.91.58 7.78-3.47 10.59a8 8 0 0 1 -10.53-7.59v-3.25a6.72 6.72 0 0 0 2.17-1.05c1.19-.83.55-.81 1.16-.48 3.94 2.78 7.41 2.24 10.67 1.78z" fill="#ffdec7"/><path d="m27 24.42v2.11a18.17 18.17 0 0 1 -4 .41c0 1.71.15 2.35-.74 2.62a12.8 12.8 0 0 0 -4.09 2.1 11.45 11.45 0 0 1 -1.17-1.6 13 13 0 0 1 4-1.7v-3.94a8.08 8.08 0 0 0 6 0z" fill="#edb996"/><path d="m28.53 23.59a8 8 0 0 1 -12.53-6.59c0-4.6-.07-4 .17-4a6.86 6.86 0 0 0 1.83-.25v3.25a8 8 0 0 0 10.53 7.59z" fill="#f6ccaf"/><path d="m36 13v23.21a12.86 12.86 0 0 0 -9-7.85v-3.94a8 8 0 0 0 5-7.42v-4c-2.35.33-6.55 1.33-11-2a6.84 6.84 0 0 1 -4.83 2c-.24 0-.17-.59-.17 4a8 8 0 0 0 5 7.42v3.94a12.92 12.92 0 0 0 -9 7.83v-23.19a12 12 0 1 1 24 0z" fill="#ffde76"/><path d="m25 1a12 12 0 0 0 -11 12c0 27 .52 16.76-2 23.19v-23.19a12 12 0 0 1 13-12z" fill="#fc6"/><path d="m32 42v5h-16v-5a5.41 5.41 0 0 1 0-6v-5.2a10.46 10.46 0 0 1 1-.74 12.31 12.31 0 0 0 10.54 5.94h4.46a5.41 5.41 0 0 1 0 6z" fill="#dad7e5"/><path d="m16 36a5.41 5.41 0 0 0 0 6v5h-6c1.36-8.66 1.32-9 2-10.81a12.82 12.82 0 0 1 4-5.39z" fill="#f6ccaf"/><path d="m16 30.8v3c-2.75 3.38-2.75 6.29-3.84 13.23h-2.16c1.36-8.66 1.32-9 2-10.81a12.82 12.82 0 0 1 4-5.42z" fill="#edb996"/><path d="m8 16v5h-5a2 2 0 0 1 -1-3.76 3.65 3.65 0 0 1 2-.24 3.73 3.73 0 0 1 .24-2 2 2 0 0 1 3.76 1z" fill="#de4a8c"/><path d="m8 16a3 3 0 0 1 -3 3c-1.63 0-3 .27-3.73-1 .63-1.12 1.64-1 2.73-1 0-1.12-.1-1.68.58-2.42a2 2 0 0 1 3.42 1.42z" fill="#f26da6"/><path d="m45 10h-5v-5a2 2 0 0 1 3.42-1.45c.73.79.58 1.48.58 2.42 1.2 0 2.11-.1 2.73 1a2 2 0 0 1 -1.73 3.03z" fill="#de4a8c"/><path d="m46.73 7a2 2 0 0 1 -1.73 1h-2c-3.06 0-4-4.07-1.72-4.87a2 2 0 0 1 2.48.87 3.65 3.65 0 0 1 .24 2c.92 0 2.07-.17 2.73 1z" fill="#f26da6"/><path d="m32 42v5h-14v-5a5.41 5.41 0 0 1 0-6v-4.53c4.25 5.22 9.69 4.53 14 4.53a5.41 5.41 0 0 1 0 6z" fill="#edebf2"/><path d="m32.91 39c0 1.4.13-.43-.91-2-5.38 0-11.11.53-15-5.94a10.46 10.46 0 0 0 -1 .74v-1a10.46 10.46 0 0 1 1-.74 12.31 12.31 0 0 0 10.54 5.94h4.46a5.47 5.47 0 0 1 .91 3z" fill="#dad7e5"/><path d="m37 36.06v-23.06a12.93 12.93 0 0 0 -3.8-9.2c-8.15-8.15-22.2-2.33-22.2 9.2 0 30.77.16 20.26-.71 25.71l-1.29 8.13a1 1 0 0 0 2 .32c1.31-8.34 1.22-10.76 4-14v2.56a6.42 6.42 0 0 0 0 6.58v4.7a1 1 0 0 0 2 0v-5c0-.66-.91-1.2-.91-3s.91-2.38.91-3v-4.19a13.37 13.37 0 0 0 10.54 5.19h3.89c1.36 2.68-.43 4.31-.43 5v5a1 1 0 0 0 2 0v-4.71a6.38 6.38 0 0 0 -.17-6.84c-.39-.6-.53-.45-5.29-.45a11.34 11.34 0 0 1 -9.09-4.62c3.82-2 3.55.27 3.55-4.6a9.3 9.3 0 0 0 4 0v2.58a1 1 0 0 0 .77 1 11.89 11.89 0 0 1 9 9.7l1.23 8.1a1 1 0 0 0 2-.32c-1.38-8.7-1.34-9-2-10.78zm-10.37-12.57a7 7 0 0 1 -9.63-6.49v-3a8 8 0 0 0 4.08-1.69c3.27 2.14 6.45 2.37 9.92 1.88v2.81a7 7 0 0 1 -4.37 6.49zm1.37 4.1v-2.59a9 9 0 0 0 5-8v-4a1 1 0 0 0 -1.14-1l-2.05.29a11.26 11.26 0 0 1 -8.21-2.1c-1.34-1-1.78 1.8-5.43 1.8-1.17.01-1.17.91-1.17 1.01v4a9 9 0 0 0 5 8v2.55a13.62 13.62 0 0 0 -7 4.86v-19.41a11 11 0 0 1 22 0v19.44a13.8 13.8 0 0 0 -7-4.85z"/><path d="m3.35 14.58a3.27 3.27 0 0 0 -.35 1.42 3 3 0 0 0 0 6h5a1 1 0 0 0 1-1v-5a3 3 0 0 0 -5.65-1.42zm3.65 5.42c-4.34 0-4.32.1-4.71-.29a1 1 0 0 1 .22-1.59c.31-.12.49-.12 1.49-.12a1 1 0 0 0 1-1c0-.91-.09-1.34.29-1.71a1.06 1.06 0 0 1 1.13-.21c.74.27.58.83.58 4.92z"/><path d="m46.42 5.35a3.27 3.27 0 0 0 -1.42-.35c0-3.9-6-4-6 0v5a1 1 0 0 0 1 1h5a3 3 0 0 0 1.42-5.65zm-.71 3.36c-.39.39-.36.29-4.71.29 0-4.07-.17-4.65.58-4.92a1.06 1.06 0 0 1 1.13.21c.35.35.29.6.29 1.71a1 1 0 0 0 1 1c1.1 0 1.21 0 1.47.11a1 1 0 0 1 .24 1.6z"/></g></svg>