<svg viewBox="0 0 48 48" xmlns="http://www.w3.org/2000/svg"><g id="Christian_groom" data-name="Christian groom"><path d="m27 24.42v3.94l-3 1.64-3-1.64v-3.94a8.08 8.08 0 0 0 6 0z" fill="#f6ccaf"/><path d="m24 47h-14l1.28-8.13a12.85 12.85 0 0 1 6.35-9.18 32 32 0 0 0 6.37 17.31z" fill="#374f68"/><path d="m24 47h-11.84c1-6.53 1-11.28 5.69-15.09a32.07 32.07 0 0 0 6.15 15.09z" fill="#425b72"/><path d="m30.37 29.69a32.21 32.21 0 0 1 -6.37 17.31 32.22 32.22 0 0 1 -6.37-17.31l.32-.18 3.48 4.63 2.57-4.14 2.57 4.14 3.48-4.63z" fill="#edebf2"/><path d="m38 47h-14a32.15 32.15 0 0 0 6.37-17.31c6.63 3.71 6.47 9.96 7.63 17.31z" fill="#425b72"/><path d="m27 24.42v2.11a9.91 9.91 0 0 1 -6 0v-2.11a8.08 8.08 0 0 0 6 0z" fill="#edb996"/><path d="m32 17a8 8 0 1 1 -16 0v-4.1a5 5 0 0 0 3.52-2.77 4 4 0 0 0 2.48.87c4.78 0 7.09.43 9.54-1.68.6 1.68.46 2.55.46 7.68z" fill="#ffdec7"/><path d="m28.55 23.58a8 8 0 0 1 -12.55-6.58v-4.1a4.81 4.81 0 0 0 2-.9v4a8 8 0 0 0 10.55 7.58z" fill="#f6ccaf"/><path d="m31.59 9.49a3.13 3.13 0 0 1 -.51.19c.51-.35.46-.47.51-.19z" fill="#ffdec7"/><path d="m34 38v9h-2v-9a1 1 0 0 1 2 0z" fill="#374f68"/><path d="m16 38v9h-2v-9a1 1 0 0 1 2 0z" fill="#374f68"/><path d="m25.18 31.9-2.82 4.54a1 1 0 0 1 -1.65.07l-2.71-3.61a32.38 32.38 0 0 1 -.37-3.27c.46-.17-.12-.7 3.8 4.51l2.57-4.14z" fill="#dad7e5"/><path d="m24 30-2.57 4.14-3.43-4.63a12.61 12.61 0 0 1 3-1.15z" fill="#edebf2"/><path d="m30.37 29.63a32.38 32.38 0 0 1 -.37 3.27l-2.71 3.61a1 1 0 0 1 -1.65-.07c-2-3.18-1.33-2.16-2.82-4.54l1.18-1.9 2.57 4.14c3.92-5.22 3.34-4.68 3.8-4.51z" fill="#dad7e5"/><path d="m30.05 29.51-3.48 4.63-2.57-4.14 3-1.64a12.61 12.61 0 0 1 3.05 1.15z" fill="#edebf2"/><path d="m25 36a1 1 0 0 1 -2 0 1 1 0 0 1 2 0z" fill="#a87e6b"/><path d="m25 40a1 1 0 0 1 -2 0 1 1 0 0 1 2 0z" fill="#a87e6b"/><g fill="#ffdec7"><path d="m16 13v5h-.5a2.5 2.5 0 1 1 0-5z"/><path d="m35 15.5a2.49 2.49 0 0 1 -2.5 2.5h-.5v-5h.5a2.5 2.5 0 0 1 2.5 2.5z"/><path d="m18 11.9a.48.48 0 0 0 .17-.05c-.17.2-.17.15-.17.05z"/></g><path d="m34 1c0 3 .43 6.38-2.92 8.68-2.34 1.69-4.29 1.32-9.08 1.32a4 4 0 0 1 -3.56-5.81c2.37-4.74 9.19.27 15.56-4.19z" fill="#374f68"/><path d="m19.52 10.13a5 5 0 0 1 -4.52 2.87c0-5.56-.33-6.5 1-7.5a2.48 2.48 0 0 1 2.44-.31 4 4 0 0 0 1.08 4.94z" fill="#374f68"/><path d="m34 1.06c0 3.46.31 6.4-2.92 8.62-1.34.41-1.88.31-7.07.31a4 4 0 0 1 -2.7-6.94c2.32-.42 7.75 1 12.37-1.86a1.79 1.79 0 0 0 .32-.13z" fill="#425b72"/><path d="m19.19 9.84a2 2 0 0 1 -3.19-1.63v-2.71a2.48 2.48 0 0 1 2.44-.31 4.05 4.05 0 0 0 .75 4.65z" fill="#425b72"/><path d="m32 38v9a1 1 0 0 0 2 0v-9a1 1 0 0 0 -2 0z"/><path d="m14 38v9a1 1 0 0 0 2 0v-9a1 1 0 0 0 -2 0z"/><path d="m37.71 38.71a13.89 13.89 0 0 0 -9.71-11.12v-2.59a9 9 0 0 0 4.76-6 3.48 3.48 0 0 0 .24-6.95 9.15 9.15 0 0 0 -.32-2.42c2.68-2.71 2.32-5.51 2.32-8.63a1 1 0 0 0 -1.55-.83c-6.18 4.11-12.21-.54-15.45 3.88a3.48 3.48 0 0 0 -4 3.45v4.85a3.48 3.48 0 0 0 1.24 6.65 9 9 0 0 0 4.76 6v2.55a13.89 13.89 0 0 0 -9.71 11.12l-1.29 8.17a1 1 0 0 0 2 .32c1.21-7.75 1.1-12.16 5.8-15.71a33.13 33.13 0 0 0 6.39 16.13 1 1 0 0 0 1.62 0 33.15 33.15 0 0 0 6.39-16.12c4.73 3.63 4.59 7.95 5.81 15.7a1 1 0 0 0 2-.32zm-16.82-9.27 1.7.93-1.24 2-1.85-2.47a11.9 11.9 0 0 1 1.39-.46zm5.11-3.66v2l-2 1.1-2-1.1v-2a9.3 9.3 0 0 0 4 0zm1.11 3.66a10.34 10.34 0 0 1 1.39.47l-1.85 2.46-1.24-2zm5.89-12.53v-2.82a1.5 1.5 0 0 1 0 2.82zm-11-12.91c5.26 0 7.71.31 11-1.28v1.28a6 6 0 0 1 -6 6h-5a3 3 0 0 1 0-6zm-6 3.5a1.51 1.51 0 0 1 1.09-1.44 4.9 4.9 0 0 0 1.17 4.22 4 4 0 0 1 -2.26 1.59zm-1 6.59v2.82a1.5 1.5 0 0 1 0-2.82zm2 2.91v-3.35a6 6 0 0 0 2.86-2.15c1.4.67 2 .5 7.14.5a7.94 7.94 0 0 0 3.91-1c.12.79.09.48.09 6a7 7 0 0 1 -14 0zm7 28.27a31 31 0 0 1 -5.06-12.78l1.69 2.25a1 1 0 0 0 1.65-.07l1.72-2.77 1.72 2.77a1 1 0 0 0 1.65.07l1.69-2.25a31 31 0 0 1 -5.06 12.78z"/><path d="m24 35a1 1 0 0 0 0 2 1 1 0 0 0 0-2z"/><path d="m24 39a1 1 0 0 0 0 2 1 1 0 0 0 0-2z"/></g></svg>